<svg width="16" height="16" viewBox="0 0 16 16" fill="none" xmlns="http://www.w3.org/2000/svg">
<path d="M15.4762 8.36225L13.9083 1.28385C13.8507 1.02505 13.6927 0.799693 13.4691 0.657199C13.2455 0.514706 12.9746 0.466714 12.7156 0.523752L5.63728 2.09169C5.50906 2.12009 5.38769 2.17347 5.28009 2.24878C5.1725 2.32409 5.0808 2.41985 5.01022 2.53061C4.93964 2.64136 4.89157 2.76493 4.86875 2.89426C4.84593 3.0236 4.84881 3.15616 4.87722 3.28438L5.53412 6.25H1.5C1.23487 6.2503 0.980694 6.35575 0.793222 6.54322C0.60575 6.7307 0.500298 6.98488 0.5 7.25V14.5C0.500298 14.7651 0.60575 15.0193 0.793222 15.2068C0.980694 15.3943 1.23487 15.4997 1.5 15.5H8.75C9.01513 15.4997 9.26931 15.3943 9.45678 15.2068C9.64425 15.0193 9.7497 14.7651 9.75 14.5V10.6549L14.7162 9.55491C14.9749 9.49726 15.2003 9.33932 15.3428 9.11573C15.4853 8.89215 15.5333 8.62118 15.4762 8.36225ZM8.75 14.5H1.5V7.25H5.75566L6.44513 10.3627C6.49436 10.5846 6.61767 10.7832 6.79476 10.9257C6.97186 11.0682 7.19219 11.1462 7.4195 11.1468C7.49291 11.1468 7.56609 11.1387 7.63775 11.1228L8.75025 10.8763L8.75062 14.5H8.75ZM14.5 8.57853L7.42147 10.1464L5.85356 3.068L12.932 1.5L14.5005 8.57828L14.5 8.57853Z" fill="white"/>
<path d="M2.5 8.25H3.75V9.5H2.5V8.25ZM2.5 12.25H3.75V13.5H2.5V12.25ZM6.5 12.25H7.75V13.5H6.5V12.25ZM4.5 10.25H5.75V11.5H4.5V10.25ZM7.0455 3.83022L8.26594 3.56009L8.53606 4.78056L7.31563 5.05069L7.0455 3.83022ZM11.8165 6.86844L13.0369 6.59812L13.3073 7.81856L12.0868 8.08887L11.8165 6.86844ZM9.43137 5.34816L10.6518 5.07784L10.9221 6.29825L9.70172 6.56856L9.43137 5.34816Z" fill="white"/>
</svg>
