<svg width="24" height="24" viewBox="0 0 24 24" fill="none" xmlns="http://www.w3.org/2000/svg">
<path d="M16.757 9.303C16.9037 9.16854 16.9909 8.98132 16.9995 8.78253C17.0082 8.58374 16.9375 8.38966 16.803 8.243C16.6685 8.09634 16.4813 8.00909 16.2825 8.00047C16.0837 7.99184 15.8897 8.06253 15.743 8.197L10.273 13.212L8.28 11.22C8.13782 11.0875 7.94978 11.0154 7.75548 11.0188C7.56118 11.0223 7.37579 11.101 7.23838 11.2384C7.10097 11.3758 7.02225 11.5612 7.01883 11.7555C7.0154 11.9498 7.08752 12.1378 7.22 12.28L9.72 14.78C9.8566 14.9167 10.0407 14.9954 10.2339 14.9997C10.4271 15.004 10.6145 14.9335 10.757 14.803L16.757 9.303ZM20.25 5C17.587 5 14.992 4.057 12.45 2.15C12.3202 2.05263 12.1623 2 12 2C11.8377 2 11.6798 2.05263 11.55 2.15C9.008 4.057 6.413 5 3.75 5C3.55109 5 3.36032 5.07902 3.21967 5.21967C3.07902 5.36032 3 5.55109 3 5.75V11C3 16.001 5.958 19.676 11.725 21.948C11.9017 22.0176 12.0983 22.0176 12.275 21.948C18.042 19.676 21 16 21 11V5.75C21 5.55109 20.921 5.36032 20.7803 5.21967C20.6397 5.07902 20.4489 5 20.25 5ZM4.5 6.478C7.077 6.326 9.58 5.388 12 3.678C14.42 5.388 16.923 6.326 19.5 6.478V11C19.5 15.256 17.047 18.379 12 20.442C6.953 18.379 4.5 15.256 4.5 11V6.478Z" fill="white"/>
</svg>
