<svg width="200" height="50" viewBox="0 0 200 50" fill="none" xmlns="http://www.w3.org/2000/svg">
<g clip-path="url(#clip0_70_2850)">
<path fill-rule="evenodd" clip-rule="evenodd" d="M63.7435 17.6309H56.5845V33.5529H51.9092V13.2886H68.4188V33.5529H63.7435V17.6309Z" fill="white"/>
<path fill-rule="evenodd" clip-rule="evenodd" d="M77.5198 29.8474C79.0101 29.8474 80.1497 28.8053 80.1497 27.0393C80.1497 25.3603 78.9806 24.2312 77.5198 24.2312C76.1173 24.2312 74.8899 25.2733 74.8899 27.0393C74.8899 28.6891 76.0295 29.8474 77.5198 29.8474ZM77.5201 20.1785C82.0203 20.1785 84.8253 23.1313 84.8253 27.0393C84.8253 30.9473 82.0203 33.9001 77.5201 33.9001C73.0198 33.9001 70.2148 30.9473 70.2148 27.0393C70.2148 23.1313 73.0198 20.1785 77.5201 20.1785Z" fill="white"/>
<path fill-rule="evenodd" clip-rule="evenodd" d="M86.3887 20.5256H90.7717V26.5475L94.3368 20.5256H99.8305L95.5642 26.7209L100.473 33.5531H94.8041L90.7717 27.4734V33.5531H86.3887V20.5256Z" fill="white"/>
<path fill-rule="evenodd" clip-rule="evenodd" d="M104.345 25.5915H109.078C109.078 24.6942 108.348 23.7969 106.945 23.7969C105.484 23.7969 104.754 24.4338 104.345 25.5915ZM112.205 32.4237C110.832 33.4367 108.962 33.9002 107.092 33.9002C102.767 33.9002 99.9619 31.1499 99.9619 27.0393C99.9619 23.247 102.767 20.178 107.092 20.178C110.482 20.178 113.462 22.61 113.462 26.316C113.462 27.3289 113.374 27.9075 113.199 28.4871H104.491C104.9 29.7313 106.127 30.2817 107.559 30.2817C109.079 30.2817 110.306 29.7896 111.007 29.3553L112.205 32.4237Z" fill="white"/>
<path fill-rule="evenodd" clip-rule="evenodd" d="M119.521 25.3892V29.355C120.163 29.7315 120.631 29.8476 121.566 29.8476C123.465 29.8476 124.371 28.516 124.371 26.9234C124.371 25.4183 123.465 24.231 121.8 24.231C120.952 24.231 120.251 24.5783 119.521 25.3892ZM115.138 20.5256H119.521V21.5104C120.251 20.786 121.567 20.1782 123.173 20.1782C126.709 20.1782 129.047 22.9868 129.047 26.8365C129.047 30.8028 126.241 33.9004 121.975 33.9004C121.069 33.9004 120.134 33.7551 119.521 33.4947V39.3426H115.138V20.5256Z" fill="white"/>
<path fill-rule="evenodd" clip-rule="evenodd" d="M135.753 29.5H139.085V24.5786H137.127L137.068 25.0999C136.805 27.2711 136.279 28.6892 135.753 29.5ZM129.471 29.5001H131.165C132.159 28.1971 132.715 25.6207 132.86 23.334L133.036 20.5259H143.468V29.5001H145.659V36.4479H141.568V33.5528H133.561V36.4479H129.471V29.5001Z" fill="white"/>
<path fill-rule="evenodd" clip-rule="evenodd" d="M153.606 29.8474C155.097 29.8474 156.236 28.8053 156.236 27.0393C156.236 25.3603 155.067 24.2312 153.606 24.2312C152.204 24.2312 150.976 25.2733 150.976 27.0393C150.976 28.6891 152.116 29.8474 153.606 29.8474ZM153.606 20.1785C158.107 20.1785 160.912 23.1313 160.912 27.0393C160.912 30.9473 158.107 33.9001 153.606 33.9001C149.106 33.9001 146.302 30.9473 146.302 27.0393C146.302 23.1313 149.106 20.1785 153.606 20.1785Z" fill="white"/>
<path fill-rule="evenodd" clip-rule="evenodd" d="M162.344 20.5256H166.288L170.234 24.9549L173.886 20.5256H177.714V33.5531H173.33V27.1547L170.146 30.7737H170.058L166.727 27.1547V33.5531H162.344V20.5256Z" fill="white"/>
<path fill-rule="evenodd" clip-rule="evenodd" d="M10.3988 10C10.1784 10 10 10.1794 10 10.4V29.4792C10 35.2566 14.7139 39.9841 20.4752 39.9841C25.7525 39.9841 30.148 36.017 30.8499 30.91C35.9421 30.2062 39.8973 25.7974 39.8973 20.5054C39.8973 14.7275 35.1839 10 29.4226 10H10.3988ZM15.7801 29.4792V15.9969C15.7801 15.8864 15.8693 15.7969 15.9796 15.7969H29.4225C31.8407 15.7969 34.1175 17.6956 34.1175 20.5054C34.1175 22.8931 32.339 25.1671 29.4333 25.1671L25.5422 25.1897C25.3238 25.1907 25.1469 25.3681 25.1454 25.5871L25.1234 29.4895C25.1234 32.4041 22.8559 34.1872 20.4751 34.1872C17.6739 34.1872 15.7801 31.9044 15.7801 29.4792ZM33.0215 36.544C33.0215 38.4524 34.564 40 36.4676 40C38.3705 40 39.9136 38.4524 39.9136 36.544C39.9136 34.635 38.3705 33.0879 36.4676 33.0879C34.564 33.0879 33.0215 34.635 33.0215 36.544Z" fill="url(#paint0_linear_70_2850)"/>
</g>
<defs>
<linearGradient id="paint0_linear_70_2850" x1="24.9569" y1="-5" x2="-5.04303" y2="24.9136" gradientUnits="userSpaceOnUse">
<stop stop-color="#2EFF71"/>
<stop offset="1" stop-color="#009148"/>
</linearGradient>
<clipPath id="clip0_70_2850">
<rect width="200" height="50" fill="white"/>
</clipPath>
</defs>
</svg>
