<svg xmlns="http://www.w3.org/2000/svg" width="418" height="59" viewBox="0 0 418 59" fill="none">
<path d="M0.796875 7.43721C0.796875 5.79787 1.38797 4.36822 2.57018 3.14825C3.75238 1.92828 5.29688 1.3183 7.16552 1.3183C9.37738 1.3183 11.0363 1.8711 12.1613 2.99576C12.924 3.7773 13.6676 5.09258 14.4113 6.99878L25.5469 35.0771L36.6443 6.99878C37.3498 5.11164 38.0935 3.79636 38.8562 3.07201C40.0384 1.90922 41.7354 1.3183 43.9282 1.3183C45.7587 1.3183 47.2842 1.90922 48.4854 3.11013C49.6867 4.31104 50.2778 5.75975 50.2778 7.43721C50.2778 8.00907 50.1443 8.6953 49.8965 9.47685C49.6295 10.2584 49.3244 11.0971 48.9621 11.974L32.6592 50.6318C31.6867 52.9764 30.9431 54.4823 30.4092 55.1495C29.227 56.5791 27.5681 57.2844 25.4134 57.2844C23.2587 57.2844 21.6761 56.5791 20.4939 55.1495C19.8265 54.3679 19.0448 52.862 18.1295 50.6318L2.18882 11.974C1.97908 11.4784 1.69306 10.7159 1.33077 9.66747C0.987551 8.63812 0.796875 7.8947 0.796875 7.43721Z" fill="white"/>
<path d="M53.4238 29.2632C53.4238 20.59 55.998 13.6324 61.1272 8.39031C66.2565 3.14826 73.1018 0.536758 81.6633 0.536758C90.2247 0.536758 96.9747 3.14826 102.123 8.35219C107.271 13.5561 109.845 20.5328 109.845 29.2632C109.845 37.9936 107.271 44.9703 102.142 50.2124C97.0128 55.4545 90.1675 58.066 81.6442 58.066C73.1209 58.066 66.2374 55.4545 61.1082 50.2124C55.9789 44.9703 53.4048 37.9746 53.4048 29.2632H53.4238ZM67.4577 29.2632C67.4577 34.1241 68.5637 38.089 70.7565 41.177C73.2734 44.6844 76.8963 46.4572 81.6633 46.4762C86.3921 46.4762 90.0149 44.7035 92.5319 41.177C94.7438 38.0508 95.8306 34.0859 95.8306 29.2632C95.8306 24.4405 94.7247 20.4947 92.5319 17.3876C90.0149 13.8802 86.3921 12.1265 81.6633 12.1265C76.9344 12.1265 73.2925 13.8802 70.7565 17.3876C68.5446 20.4566 67.4577 24.4024 67.4577 29.2632Z" fill="white"/>
<path d="M169.394 50.6318V7.97094C169.394 5.836 170.004 4.1776 171.206 3.03388C172.407 1.89016 173.989 1.31829 175.934 1.31829C177.879 1.31829 179.519 1.87109 180.701 2.99575C181.883 4.12041 182.475 5.77881 182.475 7.97094V23.3159L200.456 4.46353C201.638 3.18637 202.667 2.34764 203.544 1.92828C204.422 1.50891 205.432 1.29923 206.557 1.29923C208.044 1.29923 209.513 1.89016 210.943 3.09106C212.373 4.29197 213.078 5.70256 213.078 7.36096C213.078 8.27593 212.869 9.11466 212.449 9.89621C212.03 10.6587 211.381 11.4784 210.523 12.3552L194.926 27.3951L211.972 45.0847C213.269 46.4572 214.108 47.4484 214.528 48.0393C215.233 49.0496 215.595 50.079 215.595 51.1083C215.595 53.0526 214.928 54.5776 213.593 55.6641C212.278 56.7507 210.638 57.3035 208.731 57.3035C207.244 57.3035 205.718 56.7125 204.212 55.5498C203.392 54.9207 202.229 53.7579 200.665 52.0423L182.436 32.4466V50.6508C182.436 52.7858 181.826 54.4442 180.625 55.5879C179.424 56.7316 177.841 57.3035 175.915 57.3035C173.989 57.3035 172.331 56.7507 171.148 55.626C169.966 54.5013 169.375 52.843 169.375 50.6508L169.394 50.6318Z" fill="white"/>
<path d="M218.551 52.1377C218.551 51.1655 218.665 50.1552 218.932 49.1068C219.18 48.0584 219.695 46.4953 220.496 44.3985L233.08 11.8787C234.568 7.95188 235.864 5.2832 236.932 3.91073C238.705 1.66141 241.051 0.555817 243.93 0.555817C246.294 0.555817 248.239 1.22299 249.803 2.53827C251.366 3.85355 253.083 6.97972 254.97 11.8787L267.517 44.3985C268.375 46.5906 268.928 48.1728 269.119 49.1449C269.328 50.1171 269.424 51.1083 269.424 52.1377C269.424 53.7198 268.852 54.9779 267.746 55.9119C266.621 56.846 265.114 57.3035 263.208 57.3035C261.301 57.3035 259.699 56.7316 258.612 55.607C257.754 54.7301 257.011 53.2242 256.381 51.1274L254.761 46.1903L244.388 14.4711L231.708 51.1274C231.002 53.1861 230.258 54.6539 229.458 55.5307C228.39 56.7126 226.845 57.3035 224.862 57.3035C222.879 57.3035 221.449 56.8269 220.305 55.8929C219.161 54.9588 218.57 53.7008 218.57 52.1377H218.551Z" fill="white"/>
<path d="M273.352 51.7755C273.352 50.0599 273.981 48.554 275.22 47.2578C276.46 45.9616 277.985 45.3135 279.777 45.3135C281.57 45.3135 283.019 45.9425 284.296 47.2197C285.574 48.4968 286.222 50.0027 286.222 51.7564C286.222 53.5101 285.574 55.016 284.296 56.2932C283.019 57.5513 281.513 58.1803 279.777 58.1803C278.042 58.1803 276.479 57.5513 275.22 56.3122C273.962 55.0542 273.352 53.5483 273.352 51.7755Z" fill="#0090FF"/>
<path d="M291.943 50.5555V8.04719C291.943 6.06474 292.572 4.50166 293.85 3.41512C295.127 2.32859 296.653 1.77579 298.483 1.77579H313.871C318.809 1.77579 322.718 3.11013 325.636 5.75975C328.553 8.40937 330.002 11.8977 330.002 16.2057C330.002 18.7029 329.22 20.9331 327.676 22.9346C326.494 24.4024 324.987 25.6414 323.138 26.6708C326.627 27.338 329.43 28.9011 331.528 31.341C333.625 33.7809 334.674 36.7546 334.674 40.243C334.674 44.9703 333.11 48.8209 330.002 51.7945C326.456 55.1685 321.364 56.846 314.691 56.846H298.483C296.691 56.846 295.165 56.2932 293.888 55.1685C292.591 54.0439 291.962 52.5189 291.962 50.5746L291.943 50.5555ZM305.004 23.2968H310.992C314.958 23.2968 316.941 21.5812 316.941 18.1882C316.941 14.7952 314.958 12.908 310.992 12.8889H305.004V23.2968ZM305.004 45.7328H313.223C315.625 45.7328 317.475 45.3135 318.771 44.4938C320.316 43.5216 321.117 42.0348 321.136 40.0523C321.136 38.1652 320.354 36.7355 318.79 35.8015C317.227 34.8675 315.377 34.3909 313.223 34.3909H305.004V45.7138V45.7328Z" fill="white"/>
<path d="M338.525 50.5555V8.04719C338.525 6.06474 339.155 4.50166 340.413 3.41512C341.672 2.32859 343.216 1.77579 345.066 1.77579H365.068C367.165 1.77579 368.786 2.29046 369.911 3.30075C371.036 4.31104 371.608 5.75975 371.608 7.58971C371.608 9.41966 371.036 10.7921 369.911 11.8024C368.786 12.8127 367.165 13.3274 365.068 13.3274H351.587V23.354H363.924C365.964 23.354 367.566 23.8687 368.729 24.879C369.873 25.8893 370.464 27.3189 370.464 29.1107C370.464 32.9803 368.309 34.9247 364 34.9247H351.587V45.2563H365.525C367.623 45.2563 369.244 45.7709 370.369 46.7812C371.494 47.7915 372.066 49.2021 372.066 51.013C372.066 52.8239 371.475 54.2154 370.33 55.2638C369.167 56.3122 367.566 56.8269 365.525 56.8269H345.066C343.273 56.8269 341.748 56.2741 340.47 55.1495C339.174 54.0248 338.525 52.4998 338.525 50.5555Z" fill="white"/>
<path d="M375.746 7.58971C375.746 3.70105 377.996 1.77579 382.515 1.77579H410.259C414.778 1.77579 417.028 3.72011 417.028 7.58971C417.028 9.32435 416.437 10.7159 415.255 11.7643C414.072 12.8127 412.413 13.3274 410.259 13.3274H402.918V50.6127C402.918 52.7476 402.308 54.406 401.106 55.5498C399.905 56.6935 398.341 57.2653 396.416 57.2653C394.49 57.2653 392.831 56.7126 391.63 55.5879C390.447 54.4632 389.856 52.8048 389.856 50.6127V13.3464H382.515C380.361 13.3464 378.702 12.8318 377.519 11.8215C376.337 10.8112 375.765 9.4006 375.765 7.60877L375.746 7.58971Z" fill="white"/>
<path fill-rule="evenodd" clip-rule="evenodd" d="M164.169 32.4466C163.826 37.2312 162.892 40.9482 161.138 44.57C160.108 46.705 158.449 48.9352 156.6 50.6889C154.044 53.1098 151.318 54.9588 149.049 55.7976C147.161 56.4838 145.807 56.8269 143.958 57.0747C142.68 57.2463 142.394 57.2844 138.314 57.3035C136.864 57.3035 134.919 57.3035 132.288 57.3035H120.561C117.11 57.3035 114.326 54.5014 114.326 51.0702V50.9939C114.326 47.5437 117.129 44.7607 120.561 44.7607H129.237C137.741 44.7225 138.104 44.7035 139.725 44.4938C141.498 44.246 143.462 43.6169 144.53 42.9498C145.521 42.3207 146.379 41.5201 147.085 40.5479C147.294 40.262 147.466 40.0333 147.485 40.0142C147.6 39.9189 148.21 38.8324 148.496 38.2033C149.278 36.5259 149.735 34.8293 149.983 32.7516C150.25 30.5023 150.231 28.0242 149.926 26.0227C149.678 24.3262 149.182 22.8203 148.381 21.3144C147.199 19.065 146.36 17.9594 144.835 16.7967C144.034 16.1676 143.138 15.6339 142.337 15.3479C140.888 14.7951 140.163 14.6045 139.114 14.4711C138.58 14.3948 137.284 14.3948 129.466 14.3948H120.58C117.091 14.3948 114.269 11.5737 114.269 8.08532C114.269 6.33161 114.975 4.76852 116.119 3.6248C117.263 2.48108 118.845 1.77579 120.58 1.77579H126.034C127.121 1.77579 128.284 1.77579 129.504 1.77579C140.258 1.77579 138.962 1.73766 142.318 2.34765C143.1 2.50014 145.159 3.05294 145.826 3.30075C147.39 3.89167 149.735 5.01633 150.803 5.6835C151.432 6.06474 152.767 7.01784 153.434 7.53252C155.894 9.45778 157.972 11.6499 159.669 14.1089C160.566 15.4051 160.871 15.9198 161.672 17.6163C163.064 20.5328 163.864 23.6018 164.169 27.1664C164.265 28.1004 164.265 31.3791 164.169 32.5228V32.4466Z" fill="#0090FF"/>
</svg>